<svg version="1.1" xmlns="http://www.w3.org/2000/svg" viewBox="0 0 623.3683683664422 406.8713972507885" width="1246.7367367328843" height="813.742794501577">
  <!-- svg-source:excalidraw -->
  
  <defs>
    <style class="style-fonts">
      @font-face {
        font-family: "Virgil";
        src: url("https://excalidraw.com/Virgil.woff2");
      }
      @font-face {
        font-family: "Cascadia";
        src: url("https://excalidraw.com/Cascadia.woff2");
      }
      @font-face {
        font-family: "Assistant";
        src: url("https://excalidraw.com/Assistant-Regular.woff2");
      }
    </style>
    
  </defs>
  <g transform="translate(238.0372678285803 18.331211457625614) rotate(6.072781034870694 66.98232518729947 189.3011820520578)" stroke="none"><path fill="#ff6b81" d="M -0.19,1.58 Q -0.19,1.58 -1.86,1.43 -3.54,1.28 -6.26,1.15 -8.98,1.02 -12.94,1.18 -16.89,1.34 -22.27,2.48 -27.65,3.62 -34.38,6.54 -41.10,9.46 -49.40,14.61 -57.70,19.75 -69.06,29.57 -80.42,39.39 -92.14,51.82 -103.86,64.26 -113.96,77.57 -124.06,90.88 -133.26,106.64 -142.46,122.41 -148.97,137.35 -155.47,152.30 -159.98,169.59 -164.49,186.87 -167.63,206.58 -170.77,226.29 -171.32,246.12 -171.87,265.94 -168.18,284.61 -164.48,303.28 -154.92,317.64 -145.35,331.99 -129.33,342.82 -113.31,353.65 -90.03,360.49 -66.74,367.33 -27.49,370.39 11.74,373.44 61.04,370.18 110.34,366.91 157.59,354.16 204.84,341.41 239.65,326.30 274.45,311.20 294.71,297.81 314.97,284.42 328.99,270.55 343.01,256.69 351.37,240.69 359.72,224.69 363.46,206.48 367.19,188.27 364.17,169.93 361.15,151.60 350.31,132.63 339.47,113.67 321.04,96.06 302.61,78.45 277.30,64.01 252.00,49.56 214.98,39.37 177.96,29.19 136.51,23.48 95.05,17.78 55.41,17.74 15.78,17.70 -20.36,22.21 -56.50,26.72 -87.65,34.48 -118.81,42.23 -144.84,51.31 -170.88,60.39 -190.60,69.60 -210.32,78.81 -224.95,85.64 -239.57,92.47 -239.77,92.52 -239.98,92.58 -240.19,92.57 -240.40,92.56 -240.60,92.48 -240.80,92.40 -240.96,92.27 -241.12,92.13 -241.23,91.95 -241.34,91.77 -241.39,91.56 -241.44,91.35 -241.41,91.14 -241.39,90.93 -241.30,90.74 -241.22,90.54 -241.07,90.39 -240.92,90.23 -240.74,90.13 -240.55,90.03 -240.34,90.00 -240.13,89.96 -239.92,90.00 -239.71,90.03 -239.52,90.13 -239.33,90.23 -239.19,90.38 -239.04,90.53 -238.95,90.73 -238.86,90.92 -238.84,91.13 -238.81,91.34 -238.86,91.55 -238.90,91.76 -239.01,91.94 -239.12,92.12 -239.28,92.26 -239.44,92.40 -239.64,92.48 -239.84,92.56 -240.05,92.57 -240.26,92.58 -240.47,92.53 -240.67,92.47 -240.85,92.35 -241.03,92.23 -241.15,92.06 -241.28,91.89 -241.35,91.69 -241.42,91.49 -241.42,91.28 -241.42,91.07 -241.35,90.87 -241.29,90.66 -241.16,90.49 -241.03,90.32 -240.86,90.20 -240.68,90.09 -240.68,90.09 -240.68,90.09 -226.06,83.26 -211.44,76.43 -191.59,67.17 -171.75,57.91 -145.59,48.80 -119.44,39.69 -88.13,31.90 -56.83,24.11 -20.52,19.59 15.78,15.07 55.59,15.12 95.41,15.17 137.03,20.91 178.66,26.65 215.97,36.96 253.28,47.27 278.85,61.91 304.41,76.54 323.07,94.45 341.73,112.35 352.73,131.73 363.73,151.12 366.75,169.93 369.77,188.74 365.91,207.31 362.06,225.88 353.47,242.20 344.88,258.53 330.65,272.57 316.43,286.60 295.97,300.10 275.51,313.61 240.52,328.78 205.53,343.95 158.02,356.74 110.52,369.54 61.03,372.80 11.54,376.06 -27.96,372.96 -67.47,369.86 -91.11,362.85 -114.76,355.84 -131.13,344.67 -147.50,333.50 -157.27,318.68 -167.04,303.86 -170.77,284.87 -174.51,265.89 -173.94,245.88 -173.38,225.88 -170.22,206.04 -167.06,186.20 -162.48,168.72 -157.91,151.25 -151.34,136.15 -144.77,121.06 -135.49,105.16 -126.20,89.26 -116.02,75.83 -105.84,62.40 -94.03,49.86 -82.21,37.32 -70.69,27.35 -59.18,17.39 -50.71,12.12 -42.24,6.85 -35.26,3.81 -28.28,0.76 -22.66,-0.46 -17.04,-1.69 -12.97,-1.93 -8.89,-2.16 -6.01,-2.13 -3.13,-2.09 -1.47,-1.83 0.19,-1.58 0.37,-1.53 0.56,-1.49 0.73,-1.40 0.90,-1.31 1.04,-1.18 1.19,-1.05 1.30,-0.90 1.41,-0.74 1.48,-0.56 1.54,-0.38 1.57,-0.19 1.59,-0.00 1.57,0.18 1.55,0.38 1.48,0.56 1.41,0.74 1.30,0.89 1.19,1.05 1.05,1.18 0.90,1.31 0.73,1.40 0.56,1.49 0.38,1.53 0.19,1.58 0.00,1.58 -0.19,1.58 -0.19,1.58 L -0.19,1.58 Z"></path></g></svg>